<?xml version="1.0" standalone="no"?><!DOCTYPE svg PUBLIC "-//W3C//DTD SVG 1.1//EN" "http://www.w3.org/Graphics/SVG/1.1/DTD/svg11.dtd"><svg t="1547705545495" class="icon" style="" viewBox="0 0 1024 1024" version="1.1" xmlns="http://www.w3.org/2000/svg" p-id="2028" xmlns:xlink="http://www.w3.org/1999/xlink" width="48" height="48"><defs><style type="text/css"></style></defs><path d="M958.143442 959.9988c-20.479974-177.279778-211.071736-319.9996-446.143442-319.9996s-425.599468 142.719822-446.143442 319.9996H958.079442zM512 575.99928c273.535658 0 496.959379 174.271782 511.295361 393.599508a63.93592 63.93592 0 0 1-63.359921 54.399932H64.06456a63.61592 63.61592 0 0 1-63.359921-54.335932C14.976621 750.271062 238.464342 575.99928 512 575.99928z m0-127.99984a191.99976 191.99976 0 1 0 0-383.99952 191.99976 191.99976 0 0 0 0 383.99952z m0 63.99992a255.99968 255.99968 0 1 1 0-511.99936 255.99968 255.99968 0 0 1 0 511.99936z" fill="#5A5A5A" p-id="2029"></path></svg>